<svg width="175" height="88" viewBox="0 0 175 88" fill="none" xmlns="http://www.w3.org/2000/svg">
<ellipse rx="83.4874" ry="30.1613" transform="matrix(0.985225 -0.171265 0.173936 0.984757 87.5 44)" fill="#836F7F"/>
<path d="M169.954 43.868C169.954 47.9304 167.674 51.8334 163.479 55.4151C159.284 58.9961 153.2 62.2323 145.66 64.955C130.582 70.3996 109.735 73.772 86.6965 73.772C63.6578 73.772 42.8111 70.3996 27.733 64.955C20.1929 62.2323 14.1087 58.9961 9.91418 55.4151C5.71873 51.8334 3.43945 47.9304 3.43945 43.868C3.43945 39.8055 5.71873 35.9025 9.91418 32.3208C14.1087 28.7398 20.1929 25.5036 27.733 22.7809C42.8111 17.3363 63.6578 13.9639 86.6965 13.9639C109.735 13.9639 130.582 17.3363 145.66 22.7809C153.2 25.5036 159.284 28.7398 163.479 32.3208C167.674 35.9025 169.954 39.8055 169.954 43.868Z" stroke="#6B6B6B" stroke-width="0.5"/>
</svg>
