<?xml version="1.0" encoding="utf-8"?>
<!-- Generator: Adobe Illustrator 25.3.1, SVG Export Plug-In . SVG Version: 6.00 Build 0)  -->
<svg version="1.1" id="Слой_1" xmlns="http://www.w3.org/2000/svg" xmlns:xlink="http://www.w3.org/1999/xlink" x="0px" y="0px"
	 viewBox="0 0 167 65.9" style="enable-background:new 0 0 167 65.9;" xml:space="preserve">
<style type="text/css">
	.st0{fill:none;stroke:#836F7F;}
	.st1{fill:none;stroke:#6B6B6B;stroke-width:0.5;}
</style>
<g>
	<path class="st0" d="M166.1,18.8c0.7,3.9-0.8,8.1-4.3,12.3c-3.5,4.2-8.9,8.4-15.8,12.4c-13.9,7.9-33.8,14.8-56.5,18.8
		c-22.7,3.9-43.8,4.2-59.5,1.4c-7.9-1.4-14.4-3.5-19.1-6.3c-4.7-2.8-7.6-6.2-8.3-10.1c-0.7-3.9,0.8-8.1,4.3-12.3
		c3.5-4.2,8.9-8.4,15.8-12.4C36.6,14.6,56.5,7.7,79.2,3.8c22.7-3.9,43.8-4.2,59.5-1.4c7.9,1.4,14.4,3.5,19.1,6.3
		C162.5,11.5,165.4,14.9,166.1,18.8z"/>
	<path class="st1" d="M166.8,32.8c0,4.1-2.3,8-6.5,11.5c-4.2,3.6-10.3,6.8-17.8,9.5c-15.1,5.4-35.9,8.8-59,8.8
		c-23,0-43.9-3.4-59-8.8c-7.5-2.7-13.6-6-17.8-9.5c-4.2-3.6-6.5-7.5-6.5-11.5c0-4.1,2.3-8,6.5-11.5c4.2-3.6,10.3-6.8,17.8-9.5
		c15.1-5.4,35.9-8.8,59-8.8c23,0,43.9,3.4,59,8.8c7.5,2.7,13.6,6,17.8,9.5C164.5,24.9,166.8,28.8,166.8,32.8z"/>
</g>
</svg>
