<svg width="175" height="88" viewBox="0 0 175 88" fill="none" xmlns="http://www.w3.org/2000/svg">
<path d="M169.261 29.7872C169.95 33.6893 168.43 37.8519 164.946 42.0676C161.463 46.2815 156.061 50.4931 149.123 54.4577C135.249 62.3846 115.331 69.2681 92.6592 73.2092C69.9871 77.1504 48.8966 77.3955 33.1329 74.6206C25.2489 73.2327 18.7251 71.0941 14.0059 68.306C9.28459 65.5166 6.42798 62.115 5.73876 58.2128C5.04953 54.3107 6.57008 50.1482 10.0541 45.9324C13.5365 41.7186 18.9387 37.5069 25.8773 33.5424C39.7508 25.6155 59.6687 18.732 82.3408 14.7909C105.013 10.8497 126.103 10.6045 141.867 13.3795C149.751 14.7674 156.275 16.9059 160.994 19.6941C165.715 22.4834 168.572 25.8851 169.261 29.7872Z" stroke="#836F7F"/>
<path d="M169.954 43.868C169.954 47.9304 167.674 51.8334 163.479 55.4151C159.284 58.9961 153.2 62.2323 145.66 64.955C130.582 70.3996 109.735 73.772 86.6965 73.772C63.6578 73.772 42.8111 70.3996 27.733 64.955C20.1929 62.2323 14.1087 58.9961 9.91418 55.4151C5.71873 51.8334 3.43945 47.9304 3.43945 43.868C3.43945 39.8055 5.71873 35.9025 9.91418 32.3208C14.1087 28.7398 20.1929 25.5036 27.733 22.7809C42.8111 17.3363 63.6578 13.9639 86.6965 13.9639C109.735 13.9639 130.582 17.3363 145.66 22.7809C153.2 25.5036 159.284 28.7398 163.479 32.3208C167.674 35.9025 169.954 39.8055 169.954 43.868Z" stroke="#6B6B6B" stroke-width="0.5"/>
</svg>
