<?xml version="1.0" encoding="utf-8"?>
<!-- Generator: Adobe Illustrator 25.3.1, SVG Export Plug-In . SVG Version: 6.00 Build 0)  -->
<svg version="1.1" id="Слой_1" xmlns="http://www.w3.org/2000/svg" xmlns:xlink="http://www.w3.org/1999/xlink" x="0px" y="0px"
	 viewBox="0 0 167 65.9" style="enable-background:new 0 0 167 65.9;" xml:space="preserve">
<style type="text/css">
	.st0{fill:#836F7F;}
	.st1{fill:none;stroke:#6B6B6B;stroke-width:0.5;}
</style>
<ellipse transform="matrix(0.9853 -0.1709 0.1709 0.9853 -4.3938 14.8905)" class="st0" cx="84.3" cy="33" rx="83.5" ry="30.2"/>
<path class="st1" d="M166.8,32.8c0,4.1-2.3,8-6.5,11.5c-4.2,3.6-10.3,6.8-17.8,9.5c-15.1,5.4-35.9,8.8-59,8.8c-23,0-43.9-3.4-59-8.8
	c-7.5-2.7-13.6-6-17.8-9.5c-4.2-3.6-6.5-7.5-6.5-11.5c0-4.1,2.3-8,6.5-11.5c4.2-3.6,10.3-6.8,17.8-9.5c15.1-5.4,35.9-8.8,59-8.8
	c23,0,43.9,3.4,59,8.8c7.5,2.7,13.6,6,17.8,9.5C164.5,24.9,166.8,28.8,166.8,32.8z"/>
</svg>
