<svg width="20" height="20" viewBox="0 0 20 20" fill="none" xmlns="http://www.w3.org/2000/svg">
<path fill-rule="evenodd" clip-rule="evenodd" d="M0.863504 2.41326C1.05256 1.01944 2.24532 0 3.63943 0H16.3606C17.7547 0 18.9474 1.01944 19.1365 2.41326C19.3942 4.31335 19.782 7.40728 19.9113 9.70735C20.0386 11.9721 20.0033 15.0336 19.9618 16.9421C19.9307 18.3715 18.8258 19.5372 17.4005 19.6454C15.4623 19.7927 12.325 20 10 20C7.67497 20 4.53767 19.7927 2.59951 19.6454C1.17421 19.5372 0.0692551 18.3715 0.0381662 16.9421C-0.00334154 15.0336 -0.0385979 11.9721 0.0887046 9.70735C0.217993 7.40728 0.605777 4.31335 0.863504 2.41326ZM3.63943 1.53846C3.00257 1.53846 2.47193 2.00132 2.38801 2.62004C2.1304 4.51925 1.7503 7.56 1.62474 9.79369C1.50113 11.9928 1.53478 15.0013 1.57626 16.9086C1.59013 17.5462 2.07974 18.0631 2.71605 18.1114C4.65325 18.2586 7.73901 18.4615 10 18.4615C12.261 18.4615 15.3467 18.2586 17.284 18.1114C17.9203 18.0631 18.4099 17.5462 18.4237 16.9086C18.4652 15.0013 18.4989 11.9928 18.3753 9.79369C18.2497 7.56 17.8696 4.51925 17.612 2.62004C17.5281 2.00132 16.9974 1.53846 16.3606 1.53846H3.63943Z" fill="#282828"/>
<path fill-rule="evenodd" clip-rule="evenodd" d="M5.89744 4.10256C6.32227 4.10256 6.66667 4.44696 6.66667 4.8718C6.66667 6.71274 8.15905 8.20513 10 8.20513C11.8409 8.20513 13.3333 6.71274 13.3333 4.8718C13.3333 4.44696 13.6777 4.10256 14.1026 4.10256C14.5274 4.10256 14.8718 4.44696 14.8718 4.8718C14.8718 7.56241 12.6906 9.74359 10 9.74359C7.30938 9.74359 5.12821 7.56241 5.12821 4.8718C5.12821 4.44696 5.4726 4.10256 5.89744 4.10256Z" fill="#282828"/>
</svg>
