<svg width="10" height="10" viewBox="0 0 10 10" fill="none" xmlns="http://www.w3.org/2000/svg">
<path fill-rule="evenodd" clip-rule="evenodd" d="M0.466259 0.465526C0.642624 0.289161 0.92857 0.289161 1.10494 0.465526L5.00065 4.36124L8.89637 0.465526C9.07273 0.289161 9.35868 0.289161 9.53504 0.465526C9.71141 0.641892 9.71141 0.927837 9.53504 1.1042L5.63933 4.99992L9.53504 8.89563C9.71141 9.072 9.71141 9.35794 9.53504 9.53431C9.35868 9.71068 9.07273 9.71068 8.89637 9.53431L5.00065 5.63859L1.10494 9.53431C0.92857 9.71068 0.642624 9.71068 0.466259 9.53431C0.289893 9.35794 0.289893 9.072 0.466259 8.89563L4.36197 4.99992L0.466259 1.1042C0.289893 0.927837 0.289893 0.641892 0.466259 0.465526Z" fill="#6B6B6B"/>
</svg>
