<svg width="21" height="18" viewBox="0 0 21 18" fill="none" xmlns="http://www.w3.org/2000/svg">
<path fill-rule="evenodd" clip-rule="evenodd" d="M9.71136 2.88622C8.00202 1.10486 5.1235 1.0794 3.25609 2.90387C3.25017 2.90965 3.24417 2.91534 3.23807 2.92092C1.42632 4.58038 1.39955 7.35771 3.25609 9.17156L3.26096 9.17632L10.2704 16.1469L17.4099 9.17156C17.4158 9.16578 17.4219 9.16009 17.4279 9.15451C19.2397 7.49505 19.2665 4.71772 17.4099 2.90387C15.5525 1.08919 12.6598 1.08919 10.8024 2.90387C10.6557 3.04722 10.458 3.12596 10.2532 3.12264C10.0484 3.11933 9.85338 3.03424 9.71136 2.88622ZM10.2795 1.31813C7.92768 -0.596128 4.45593 -0.413992 2.19139 1.79012C-0.298968 4.08049 -0.270135 7.87784 2.18003 10.2742C2.18086 10.275 2.18169 10.2759 2.18253 10.2767L9.724 17.7763C10.022 18.0727 10.5018 18.0748 10.8024 17.7811L18.4749 10.2851C20.9658 7.99388 20.936 4.19491 18.4835 1.79876C16.2054 -0.426948 12.73 -0.587158 10.2795 1.31813Z" fill="#836F7F"/>
</svg>
