<svg width="24" height="22" viewBox="0 0 24 22" fill="none" xmlns="http://www.w3.org/2000/svg">
<path d="M22.0615 2.40906C20.8048 1.15233 19.141 0.465459 17.3653 0.465459C15.5896 0.465459 13.9207 1.15742 12.664 2.41415L12.0077 3.0705L11.3411 2.40398C10.0844 1.14725 8.41045 0.450195 6.63475 0.450195C4.86413 0.450195 3.19528 1.14216 1.94363 2.3938C0.686904 3.65053 -0.00506012 5.31938 2.78603e-05 7.09508C2.78603e-05 8.87078 0.69708 10.5345 1.95381 11.7913L11.509 21.3465C11.6413 21.4788 11.8194 21.55 11.9924 21.55C12.1654 21.55 12.3435 21.4839 12.4757 21.3516L22.0513 11.8116C23.308 10.5549 24 8.88605 24 7.11035C24.0051 5.33464 23.3182 3.66579 22.0615 2.40906ZM21.0846 10.8398L11.9924 19.8964L2.92053 10.8246C1.92328 9.82732 1.37378 8.50445 1.37378 7.09508C1.37378 5.68572 1.91819 4.36284 2.91544 3.37069C3.90759 2.37854 5.23047 1.82903 6.63475 1.82903C8.04412 1.82903 9.37208 2.37854 10.3693 3.37578L11.5192 4.52566C11.7889 4.79532 12.2213 4.79532 12.491 4.52566L13.6307 3.38595C14.628 2.38871 15.9559 1.83921 17.3602 1.83921C18.7645 1.83921 20.0874 2.38871 21.0846 3.38087C22.0818 4.37811 22.6263 5.70098 22.6263 7.11035C22.6313 8.51971 22.0818 9.84259 21.0846 10.8398Z" fill="#282828"/>
</svg>
