<svg width="24" height="24" viewBox="0 0 24 24" fill="none" xmlns="http://www.w3.org/2000/svg">
<path d="M23.7891 22.7761L17.9567 16.9437C19.5212 15.145 20.4685 12.7982 20.4685 10.2333C20.4685 4.58714 15.876 0 10.2352 0C4.58909 0 0.00195312 4.59246 0.00195312 10.2333C0.00195312 15.8741 4.59441 20.4665 10.2352 20.4665C12.8002 20.4665 15.147 19.5193 16.9456 17.9548L22.778 23.7871C22.9164 23.9255 23.1026 24 23.2836 24C23.4645 24 23.6507 23.9308 23.7891 23.7871C24.0658 23.5104 24.0658 23.0528 23.7891 22.7761ZM1.43344 10.2333C1.43344 5.38004 5.382 1.43681 10.2299 1.43681C15.0831 1.43681 19.0263 5.38537 19.0263 10.2333C19.0263 15.0812 15.0831 19.035 10.2299 19.035C5.382 19.035 1.43344 15.0865 1.43344 10.2333Z" fill="#282828"/>
</svg>
