<svg width="20" height="20" viewBox="0 0 20 20" fill="none" xmlns="http://www.w3.org/2000/svg">
<path d="M19.9329 9.69072C19.8306 7.42268 19.4218 4.43299 19.1151 2.37113C18.9107 1.03093 17.7862 0 16.3552 0H3.67991C2.24884 0 1.12442 1.03093 0.919978 2.37113C0.613319 4.53608 0.306659 7.42268 0.10222 9.69072C-9.90076e-08 11.8557 0 14.8454 0 17.0103C0 18.4536 1.12442 19.5876 2.55549 19.6907C4.70211 19.8969 7.66648 20 9.91532 20C12.1642 20 15.1285 19.7938 17.2751 19.6907C18.7062 19.5876 19.8306 18.4536 19.8306 17.0103C20.0351 14.8454 20.0351 11.8557 19.9329 9.69072ZM10.0175 9.79381C7.35982 9.79381 5.11099 7.62887 5.11099 4.84536C5.11099 4.43299 5.41765 4.02062 5.92875 4.02062C6.43985 4.02062 6.74651 4.43299 6.74651 4.84536C6.74651 6.70103 8.2798 8.14433 10.0175 8.14433C11.7553 8.14433 13.2886 6.59794 13.2886 4.84536C13.2886 4.43299 13.5952 4.02062 14.1063 4.02062C14.6174 4.02062 14.9241 4.3299 14.9241 4.84536C14.9241 7.52577 12.6753 9.79381 10.0175 9.79381Z" fill="#282828"/>
</svg>
