<svg width="24" height="24" viewBox="0 0 24 24" fill="none" xmlns="http://www.w3.org/2000/svg">
<path d="M21.6004 20.746L20.2262 5.27117C20.1967 4.92761 19.9072 4.66748 19.5685 4.66748H16.7415C16.7023 2.08589 14.5918 0 12.0004 0C9.409 0 7.29857 2.08589 7.25931 4.66748H4.43232C4.08876 4.66748 3.8041 4.92761 3.77465 5.27117L2.40042 20.746C2.40042 20.7656 2.39551 20.7853 2.39551 20.8049C2.39551 22.5669 4.01023 24 5.99796 24H18.0029C19.9906 24 21.6053 22.5669 21.6053 20.8049C21.6053 20.7853 21.6053 20.7656 21.6004 20.746ZM12.0004 1.32515C13.8605 1.32515 15.3771 2.81718 15.4164 4.66748H8.58446C8.62373 2.81718 10.1403 1.32515 12.0004 1.32515ZM18.0029 22.6748H5.99796C4.75134 22.6748 3.74029 21.8503 3.72066 20.8344L5.036 5.99755H7.2544V8.00982C7.2544 8.37791 7.54888 8.67239 7.91698 8.67239C8.28508 8.67239 8.57956 8.37791 8.57956 8.00982V5.99755H15.4164V8.00982C15.4164 8.37791 15.7108 8.67239 16.0789 8.67239C16.447 8.67239 16.7415 8.37791 16.7415 8.00982V5.99755H18.9599L20.2802 20.8344C20.2605 21.8503 19.2446 22.6748 18.0029 22.6748Z" fill="#282828"/>
</svg>
