<svg width="160" height="160" viewBox="0 0 160 160" fill="none" xmlns="http://www.w3.org/2000/svg">
<path d="M80 0L80.6016 75.2378L99.8952 2.51334L81.767 75.5371L118.54 9.89546L82.8214 76.1167L134.764 21.6825L83.6985 76.9404L147.546 37.1339L84.3432 77.9563L156.085 55.2786L84.715 79.1006L159.842 74.9768L84.7905 80.3014L158.583 94.9905L84.5651 81.4833L152.386 114.062L84.0528 82.572L141.641 130.994L83.2858 83.499L127.023 144.721L82.3124 84.2063L109.45 154.382L81.1937 84.6492L90.0267 159.369L80 84.8L69.9733 159.369L78.8063 84.6492L50.55 154.382L77.6876 84.2063L32.9772 144.721L76.7142 83.499L18.3589 130.994L75.9472 82.572L7.61384 114.062L75.4349 81.4833L1.41702 94.9905L75.2095 80.3014L0.15786 74.9768L75.285 79.1006L3.91548 55.2786L75.6568 77.9563L12.4538 37.1339L76.3015 76.9404L25.2362 21.6825L77.1786 76.1167L41.4597 9.89546L78.233 75.5371L60.1048 2.51334L79.3984 75.2378L80 0Z" fill="#E4BDB8"/>
</svg>
