<svg width="145" height="145" viewBox="0 0 145 145" fill="none" xmlns="http://www.w3.org/2000/svg">
<path d="M72.5 0L73.0452 68.1843L90.53 2.27772L74.1013 68.4555L107.427 8.96777L75.0569 68.9808L122.13 19.6498L75.8517 69.7272L133.714 33.6526L76.436 70.6479L141.452 50.0963L76.7729 71.6849L144.857 67.9477L76.8414 72.7731L143.716 86.0851L76.6371 73.8442L138.1 103.369L76.1728 74.8308L128.362 118.713L75.4778 75.671L115.114 131.154L74.5956 76.3119L99.189 139.909L73.5818 76.7133L81.5867 144.428L72.5 76.85L63.4133 144.428L71.4182 76.7133L45.811 139.909L70.4044 76.3119L29.8856 131.154L69.5222 75.671L16.6378 118.713L68.8272 74.8308L6.90004 103.369L68.3629 73.8442L1.28417 86.0851L68.1586 72.7731L0.143059 67.9477L68.2271 71.6849L3.5484 50.0963L68.564 70.6479L11.2862 33.6526L69.1483 69.7272L22.8703 19.6498L69.9431 68.9808L37.5729 8.96777L70.8987 68.4555L54.47 2.27772L71.9548 68.1843L72.5 0Z" fill="#E4BDB8"/>
</svg>
